PathFileType	4	(X/Y/Z)	C:/Users/opensim2020/Desktop/walking_exp_matlab/subject03_walking10_straight_02.trc																																																																																																																																					
DataRate	CameraRate	NumFrames	NumMarkers	Units	OrigDataRate	OrigDataStartFrame	OrigNumFrames																																																																																																																																	
100	100	8	45	mm	100	1815	347																																																																																																																																	
Frame#	Time	LFHD			RFHD			LBHD			RBHD			C7			T10			CLAV			STRN			RBAK			LSHO			LUPA			LELB			LFRM			LWRA			LWRB			LFIN			RSHO			RUPA			RELB			RFRM			RWRA			RWRB			RFIN			LASI			RASI			LPSI			RPSI			LTHI			LKNE			LTIB			LANK			LHEE			LTOE			RTHI			RKNE			RTIB			RANK			RHEE			RTOE			*39			*40			*41			*42			*43			*44		
		X1	Y1	Z1	X2	Y2	Z2	X3	Y3	Z3	X4	Y4	Z4	X5	Y5	Z5	X6	Y6	Z6	X7	Y7	Z7	X8	Y8	Z8	X9	Y9	Z9	X10	Y10	Z10	X11	Y11	Z11	X12	Y12	Z12	X13	Y13	Z13	X14	Y14	Z14	X15	Y15	Z15	X16	Y16	Z16	X17	Y17	Z17	X18	Y18	Z18	X19	Y19	Z19	X20	Y20	Z20	X21	Y21	Z21	X22	Y22	Z22	X23	Y23	Z23	X24	Y24	Z24	X25	Y25	Z25	X26	Y26	Z26	X27	Y27	Z27	X28	Y28	Z28	X29	Y29	Z29	X30	Y30	Z30	X31	Y31	Z31	X32	Y32	Z32	X33	Y33	Z33	X34	Y34	Z34	X35	Y35	Z35	X36	Y36	Z36	X37	Y37	Z37	X38	Y38	Z38	X39	Y39	Z39	X40	Y40	Z40	X41	Y41	Z41	X42	Y42	Z42	X43	Y43	Z43	X44	Y44	Z44	X45	Y45	Z45
																																																																																																																																								
1	0	-1131.54077	1613.29492	947.0614	-1139.29419	1615.46289	1079.68835	-1263.87292	1584.2688	942.90015	-1266.57629	1585.37256	1073.65063	-1309.23633	1417.32764	1000.60529	-1339.01367	1102.0166	1000.2724	-1186.47705	1340.93176	998.71429	-1140.52539	1176.84424	988.08112	-1358.00183	1235.88757	1095.06189	-1233.87805	1378.45007	843.54828	-1229.38843	1181.18286	771.40692	-1213.78284	1059.08203	759.06604	-1181.24292	932.70087	755.30023	-1156.17981	814.6004	781.6712	-1180.72595	821.04004	730.55133	-1164.09656	736.56519	738.85559	-1230.16504	1358.28735	1159.09668	-1214.21887	1136.70264	1233.38257	-1189.30933	1027.60645	1249.47644	-1159.04407	893.94397	1253.53027	-1119.63464	801.77161	1219.99768	-1150.66626	794.4776	1264.07507	-1120.71484	725.64612	1255.021	-1188.4541	933.112	873.84393	-1162.77209	940.45325	1110.81982	-1343.81445	958.52283	936.74231	-1327.76331	974.75983	1084.5105	-1234.24292	631.76764	819.53217	-1216.30542	452.21902	833.85901	-1367.46045	325.28934	851.63013	-1509.35181	178.11832	905.01758	-1555.63489	179.91927	951.87067	-1430.35742	49.41226	912.12164	-1211.60278	648.85101	1151.85681	-1190.20386	468.52371	1110.68713	-1227.76404	281.72495	1113.21472	-1248.62073	67.25706	1061.38757	-1292.51563	34.83303	1010.68988	-1106.56067	31.61171	1047.05164	-1208.26343	1683.09692	992.9472	NaN	NaN	NaN	NaN	NaN	NaN	NaN	NaN	NaN	NaN	NaN	NaN	NaN	NaN	NaN
2	0.01	-1124.29431	1612.93115	947.30847	-1131.81213	1614.95325	1079.99292	-1256.74146	1584.45422	943.35822	-1259.15649	1585.30444	1074.03442	-1302.70056	1417.42957	1001.46552	-1332.99634	1102.12634	1001.4295	-1180.06824	1340.82275	998.72327	-1134.50842	1176.65186	987.93353	-1351.21411	1236.125	1096.30994	-1228.96667	1378.35852	843.73334	-1225.98267	1180.98425	771.59827	-1210.67957	1059.08923	758.82977	-1177.89111	932.53333	754.58435	-1152.89014	814.30029	780.36975	-1178.02539	820.96204	729.57172	-1161.19873	736.61554	737.12671	-1222.52454	1358.25525	1159.40356	-1205.10352	1136.98059	1234.13855	-1179.50916	1028.03174	1250.35144	-1148.63586	894.54712	1254.47058	-1109.33948	802.49249	1220.77185	-1139.62341	795.1756	1265.29639	-1109.13318	726.77216	1256.26086	-1180.46497	934.24011	873.47186	-1156.38452	940.43683	1111.32703	-1338.0686	958.2901	937.98029	-1321.37402	974.40594	1085.64441	-1224.02124	632.3288	819.93646	-1202.05359	453.36731	833.58417	-1352.41406	326.1575	851.39227	-1493.68152	178.44963	904.61426	-1540.29602	179.14243	951.69037	-1413.05579	51.49418	909.48376	-1206.06555	648.53284	1151.96558	-1185.95984	468.20648	1110.6084	-1225.24268	281.58029	1113.02063	-1248.35559	67.31089	1061.19006	-1292.4989	34.94283	1010.6828	-1106.52234	31.63588	1046.94287	-1200.80933	1683.07983	993.77417	NaN	NaN	NaN	NaN	NaN	NaN	NaN	NaN	NaN	NaN	NaN	NaN	NaN	NaN	NaN
3	0.02	-1116.99805	1612.59778	947.48706	-1124.28589	1614.40747	1080.16614	-1249.56213	1584.70532	943.76208	-1251.83582	1585.44653	1074.49402	-1296.23755	1417.59363	1002.32379	-1326.97656	1102.22632	1002.63391	-1173.69922	1340.77209	998.77472	-1128.67041	1176.28052	987.71173	-1344.44226	1236.41992	1097.57837	-1224.07971	1378.40906	843.92151	-1222.62024	1180.91553	771.84058	-1207.17896	1059.09863	758.6839	-1174.58826	932.56793	753.75604	-1149.55481	814.15765	779.28876	-1175.29065	821.12085	728.76038	-1158.04114	736.85583	735.63452	-1214.87878	1358.13147	1159.57397	-1195.93054	1137.32263	1234.69507	-1169.70117	1028.64868	1251.00525	-1138.229	895.28729	1255.22363	-1099.0802	803.33618	1221.42249	-1128.63525	796.0188	1266.3396	-1097.73755	727.98407	1257.40405	-1174.95923	934.92792	873.99908	-1149.94629	940.3974	1111.83582	-1332.24475	958.28717	939.15967	-1314.92285	974.08423	1086.73315	-1213.19226	633.05487	820.63507	-1187.80688	454.55804	833.69928	-1336.86536	326.41574	851.32172	-1477.24683	177.88283	904.26526	-1524.00452	177.33443	951.44287	-1394.59998	52.6352	907.74658	-1200.49683	648.27045	1152.0155	-1181.8446	467.83276	1110.53894	-1222.87708	281.46829	1112.82898	-1248.13562	67.32841	1060.99402	-1292.46313	35.04673	1010.6944	-1106.47754	31.6125	1046.83118	NaN	NaN	NaN	NaN	NaN	NaN	NaN	NaN	NaN	NaN	NaN	NaN	NaN	NaN	NaN	NaN	NaN	NaN
4	0.03	-1109.71851	1612.18933	947.60272	-1116.75769	1613.85022	1080.2926	-1242.5083	1585.13342	944.04596	-1244.45032	1585.64465	1074.81116	-1289.72363	1417.7262	1003.07257	-1320.97144	1102.41357	1003.93439	-1168.74841	1339.82922	998.10437	-1122.71619	1176.40283	987.51709	-1337.73889	1236.71277	1098.91785	-1219.14026	1378.5708	844.16455	-1219.23914	1181.00867	772.04108	-1203.91174	1059.26453	758.47009	-1171.30176	932.73138	753.03241	-1145.96082	814.36975	778.28992	-1172.19629	821.36707	728.09406	-1154.58972	737.25562	734.32648	-1207.39661	1358.44226	1159.70789	-1186.79443	1137.83069	1235.0437	-1159.91492	1029.41833	1251.43396	-1127.87744	896.19043	1255.86609	-1088.83984	804.2431	1221.92493	-1117.77966	797.03564	1267.26953	-1086.40649	729.23938	1258.38477	-1169.37488	935.60236	874.64172	-1143.50806	940.34772	1112.36438	-1326.3949	958.474	940.28754	-1308.53992	973.84082	1087.81018	-1202.74854	633.823	821.25031	-1173.49133	455.83109	834.03302	-1320.73059	325.9921	851.35529	-1459.86853	176.23746	903.86279	-1507.25549	174.87169	950.84399	-1375.05713	53.04782	906.82953	-1194.7804	647.91711	1151.9856	-1177.83667	467.45621	1110.5293	-1220.53479	281.29736	1112.76526	-1247.91956	67.40732	1060.8811	-1292.44995	35.18817	1010.65558	-1106.43054	31.59866	1046.77307	NaN	NaN	NaN	NaN	NaN	NaN	NaN	NaN	NaN	NaN	NaN	NaN	NaN	NaN	NaN	NaN	NaN	NaN
5	0.04	-1102.41321	1611.78552	947.61951	-1109.21594	1613.26953	1080.33142	-1235.38794	1585.56116	944.25745	-1237.08398	1585.91907	1075.03625	-1283.33447	1417.94434	1003.84808	-1314.90479	1102.59253	1005.2182	-1162.49219	1339.7644	997.99225	-1116.86755	1176.26257	987.31506	-1330.875	1237.04114	1100.19702	-1214.20435	1378.74915	844.36139	-1215.90039	1181.19446	772.19983	-1200.69226	1059.4873	758.24048	-1168.03625	933.06158	752.39124	-1142.49866	814.737	777.46826	-1169.04639	821.65997	727.46063	-1150.98547	737.75671	733.29236	-1199.92175	1358.76978	1159.77063	-1177.7428	1138.47327	1235.33936	-1150.17065	1030.26758	1251.66895	-1117.63208	897.20087	1256.3407	-1078.66882	805.26593	1222.32434	-1106.96899	798.16882	1268.06738	-1075.29333	730.59821	1259.23926	-1163.54565	936.51038	875.17316	-1137.10876	940.21655	1112.87915	-1320.49561	958.64996	941.26758	-1302.17236	973.63214	1088.82874	-1192.39893	634.60724	822.05798	-1159.21802	457.23828	834.71466	-1303.96057	325.02133	851.72009	-1441.83997	173.76794	903.50812	-1489.56177	171.12946	950.29791	-1354.33057	53.20815	906.21014	-1189.1925	647.62549	1152.01746	-1173.91479	467.04349	1110.56885	-1218.3302	281.12741	1112.64868	-1247.71558	67.42156	1060.76074	-1292.44336	35.32891	1010.66534	-1106.39233	31.57256	1046.71997	NaN	NaN	NaN	NaN	NaN	NaN	NaN	NaN	NaN	NaN	NaN	NaN	NaN	NaN	NaN	NaN	NaN	NaN
6	0.05	-1095.13306	1611.29297	947.58514	-1101.66711	1612.69055	1080.28479	-1228.3103	1586.05518	944.46155	-1229.73413	1586.26563	1075.22559	-1276.89282	1418.13635	1004.50775	-1308.86816	1102.74536	1006.46375	-1156.24219	1339.83752	997.81549	-1111.026	1176.19604	987.13477	-1323.93286	1237.42029	1101.45764	-1209.2594	1378.92126	844.65295	-1212.44153	1181.44275	772.29163	-1197.63513	1059.72864	757.95984	-1164.70471	933.39893	751.73016	-1137.95605	815.35876	776.34918	-1165.78711	821.99713	726.99896	-1147.14905	738.22418	732.44397	-1192.4978	1359.19385	1159.81458	-1168.79907	1139.18103	1235.52979	-1140.51636	1031.17188	1251.8042	-1107.51526	898.34143	1256.64844	-1068.50854	806.39844	1222.64795	-1096.30811	799.29547	1268.59924	-1064.39197	731.89496	1259.87793	-1157.87073	937.20386	875.86572	-1130.74304	940.11285	1113.32593	-1314.59998	958.87927	942.1524	-1295.83167	973.3465	1089.86694	-1181.62573	635.28876	822.83484	-1144.90369	458.7056	835.63306	-1287.39319	323.85635	851.68402	-1423.18152	170.53506	903.15039	-1471.3363	166.51297	949.52759	-1332.32214	52.79555	906.55115	-1183.45129	646.88794	1152.0835	-1170.03296	466.60876	1110.6134	-1216.05115	281.01035	1112.65881	-1247.55676	67.53239	1060.74304	-1292.40881	35.51138	1010.71222	-1106.36243	31.56263	1046.68433	NaN	NaN	NaN	NaN	NaN	NaN	NaN	NaN	NaN	NaN	NaN	NaN	NaN	NaN	NaN	NaN	NaN	NaN
7	0.06	-1087.90686	1610.8031	947.38007	-1094.10095	1612.0802	1080.13098	-1221.22046	1586.45386	944.58435	-1222.37732	1586.60632	1075.36792	-1270.48669	1418.32617	1005.14771	-1302.8313	1102.91272	1007.70752	-1150.03406	1339.77002	997.68848	-1105.13196	1176.12	986.97174	-1316.94397	1237.78296	1102.76257	-1204.25562	1379.04553	844.91998	-1208.896	1181.71924	772.33508	-1194.6012	1059.96179	757.65253	-1161.47412	933.74536	751.07593	-1133.49536	815.98804	775.34442	-1162.34473	822.27777	726.54327	-1143.08948	738.65582	731.8634	-1185.07788	1359.66443	1159.82813	-1159.9884	1139.93628	1235.71936	-1130.98438	1032.1012	1251.84668	-1097.41138	899.45789	1256.91589	-1058.41211	807.52002	1222.85376	-1085.84644	800.46667	1268.96887	-1053.60547	733.15527	1260.33521	-1152.08899	937.87115	876.51227	-1124.50122	939.97723	1113.7771	-1308.5929	959.06891	942.89746	-1289.50854	973.16382	1090.67725	-1171.45898	636.36462	823.65753	-1130.74316	460.41116	836.83112	-1270.23853	322.2417	851.99524	-1403.76416	166.4958	902.89136	-1452.42358	160.8941	948.71674	-1309.16382	52.13668	907.16162	-1177.76477	646.31653	1151.85828	-1166.10693	466.16592	1110.65454	-1213.70947	280.86105	1112.66333	-1247.10425	67.41488	1060.53015	-1292.48242	35.80925	1010.65363	-1106.29468	31.53073	1046.64514	-1161.82861	1683.74609	995.88531	NaN	NaN	NaN	NaN	NaN	NaN	NaN	NaN	NaN	NaN	NaN	NaN	NaN	NaN	NaN
8	0.07	-1080.69543	1610.23218	947.20355	-1086.60364	1611.48511	1079.97314	-1214.20337	1586.81506	944.63806	-1215.01416	1586.90027	1075.46936	-1264.08533	1418.526	1005.72974	-1296.79785	1103.03088	1008.90869	-1143.88953	1339.76855	997.4444	-1099.32214	1175.85803	986.81854	-1309.96655	1238.14807	1104.10388	-1199.23767	1379.08826	845.20148	-1205.29761	1181.89368	772.36816	-1191.69397	1060.09741	757.29944	-1158.11633	933.97662	750.46552	-1129.08545	816.72253	774.58862	-1158.7738	822.4433	726.17517	-1138.8114	739.11005	731.27161	-1177.71533	1360.12366	1159.79883	-1151.30835	1140.65735	1235.84424	-1121.60706	1033.02209	1251.86194	-1087.49719	900.51178	1257.03174	-1048.38025	808.63831	1222.94299	-1075.4353	801.62726	1269.29053	-1043.06702	734.43903	1260.63721	-1146.20935	938.59167	877.16479	-1118.22498	939.76331	1114.27856	-1302.6261	959.21991	943.51294	-1283.24463	972.97235	1091.39734	-1160.59985	637.44867	824.4751	-1116.90027	462.15216	838.14899	-1253.2146	320.4436	852.32794	-1383.5752	161.70934	902.63312	-1432.71069	154.34775	947.86908	-1284.97046	51.28414	908.16302	-1172.47656	645.83484	1151.81055	-1162.15344	465.68259	1110.6217	-1211.31628	280.7027	1112.60352	-1246.85596	67.56034	1060.48486	-1292.42383	36.09652	1010.71234	-1106.20679	31.49877	1046.59656	-1153.87463	1683.73218	995.72021	NaN	NaN	NaN	NaN	NaN	NaN	NaN	NaN	NaN	NaN	NaN	NaN	NaN	NaN	NaN
